<?xml version="1.0" encoding="UTF-8"?>
<svg xmlns="http://www.w3.org/2000/svg" xmlns:xlink="http://www.w3.org/1999/xlink" width="2880px" height="2161px" viewBox="0 0 2879 2161" version="1.1">
<g id="surface1">
<path style=" stroke:none;fill-rule:nonzero;fill:rgb(0%,0%,0%);fill-opacity:1;" d="M 814.757812 361.992188 C 790.285156 364.871094 736.160156 378.695312 709.671875 389.0625 C 620.710938 423.617188 544.132812 492.445312 509.582031 568.472656 C 488.566406 614.835938 480.503906 656.59375 491.15625 665.519531 C 498.644531 671.855469 508.71875 663.792969 534.054688 630.386719 C 568.316406 584.886719 585.875 565.59375 614.953125 541.691406 C 661.019531 503.386719 708.808594 481.214844 767.253906 470.847656 C 802.664062 464.511719 874.640625 462.207031 919.839844 466.238281 C 956.980469 469.40625 1041.621094 482.941406 1045.652344 486.398438 C 1046.804688 487.261719 1037.589844 495.613281 1024.925781 505.117188 C 996.996094 525.5625 948.34375 575.09375 925.023438 606.484375 C 901.128906 639.027344 872.914062 684.527344 850.457031 727.148438 L 831.457031 763.144531 L 949.496094 763.144531 L 957.554688 744.140625 C 969.359375 716.207031 1002.46875 656.304688 1023.484375 624.917969 C 1055.152344 577.398438 1092.003906 539.675781 1123.960938 522.394531 C 1136.339844 515.773438 1137.492188 515.484375 1136.054688 520.089844 C 1131.160156 536.21875 1119.355469 585.175781 1112.734375 616.277344 C 1105.535156 650.257812 1088.261719 751.628906 1088.261719 759.402344 C 1088.261719 764.875 1220.40625 764.875 1221.847656 759.402344 C 1222.421875 757.675781 1225.589844 734.636719 1229.046875 708.140625 C 1244.878906 583.445312 1271.367188 477.46875 1303.898438 410.371094 C 1311.671875 394.53125 1317.71875 381.285156 1317.140625 380.710938 C 1316.566406 380.132812 1307.355469 382.4375 1296.703125 385.605469 C 1234.515625 404.035156 1190.464844 402.882812 1058.03125 379.84375 C 974.253906 365.445312 921.855469 359.976562 871.183594 360.550781 C 845.5625 360.550781 820.226562 361.414062 814.757812 361.992188 Z M 814.757812 361.992188 "/>
<path style=" stroke:none;fill-rule:nonzero;fill:rgb(0%,0%,0%);fill-opacity:1;" d="M 2010.980469 361.703125 C 2006.375 362.277344 1987.375 364.871094 1969.234375 367.460938 C 1790.164062 391.941406 1636.710938 491.292969 1573.375 623.476562 C 1555.234375 661.203125 1553.507812 683.375 1568.191406 687.121094 C 1579.132812 690 1586.90625 683.953125 1616.269531 650.546875 C 1706.960938 547.449219 1818.664062 489.277344 1957.71875 472.285156 C 1996.585938 467.679688 2085.257812 468.253906 2121.824219 473.4375 C 2259.152344 493.019531 2346.960938 551.480469 2400.796875 659.472656 C 2414.328125 685.96875 2429.300781 725.707031 2435.632812 750.761719 L 2438.800781 763.144531 L 2526.324219 763.144531 C 2574.691406 763.144531 2614.132812 762.859375 2614.132812 762.28125 C 2614.132812 756.8125 2592.539062 684.527344 2585.628906 667.535156 C 2527.1875 520.667969 2425.269531 426.496094 2279.015625 384.164062 C 2217.40625 366.308594 2184.875 362.277344 2097.351562 361.414062 C 2054.742188 360.839844 2015.875 361.125 2010.980469 361.703125 Z M 2010.980469 361.703125 "/>
<path style=" stroke:none;fill-rule:nonzero;fill:rgb(0%,0%,0%);fill-opacity:1;" d="M 1976.722656 564.726562 C 1945.917969 569.910156 1905.320312 596.40625 1868.472656 635.570312 C 1840.257812 665.519531 1829.605469 686.542969 1822.40625 726.859375 C 1819.238281 744.140625 1816.648438 759.402344 1816.648438 760.84375 C 1816.648438 761.996094 1847.742188 763.144531 1885.746094 763.144531 L 1954.839844 763.144531 L 1956.28125 756.523438 C 1956.855469 753.066406 1960.3125 734.058594 1963.476562 714.191406 C 1973.84375 651.410156 1980.464844 631.828125 2003.785156 595.832031 C 2014.722656 578.839844 2017.890625 569.046875 2013.285156 566.457031 C 2007.816406 563.289062 1989.675781 562.425781 1976.722656 564.726562 Z M 1976.722656 564.726562 "/>
<path style=" stroke:none;fill-rule:nonzero;fill:rgb(0%,0%,0%);fill-opacity:1;" d="M 2101.957031 848.675781 C 2089.578125 855.011719 2083.246094 869.121094 2086.125 884.960938 C 2090.152344 909.152344 2141.113281 1049.398438 2150.902344 1063.222656 C 2159.539062 1075.316406 2172.492188 1079.925781 2197.253906 1079.925781 L 2218.269531 1079.925781 L 2202.722656 1087.988281 C 2190.34375 1094.035156 2186.601562 1097.777344 2184.585938 1104.691406 C 2182.859375 1111.027344 2177.964844 1116.496094 2166.734375 1123.984375 C 2147.15625 1136.945312 2144.566406 1143.855469 2154.644531 1154.511719 C 2164.71875 1164.878906 2164.144531 1170.351562 2152.050781 1179.566406 C 2138.808594 1189.644531 2139.097656 1196.554688 2152.628906 1202.890625 C 2176.234375 1214.121094 2171.34375 1235.433594 2140.25 1257.894531 C 2106.5625 1281.796875 2097.925781 1288.710938 2093.898438 1294.757812 C 2090.152344 1300.515625 2090.730469 1301.957031 2096.777344 1309.15625 C 2103.109375 1316.355469 2104.835938 1316.929688 2112.035156 1314.628906 C 2117.214844 1312.898438 2123.839844 1306.277344 2129.019531 1297.636719 C 2143.703125 1274.023438 2154.929688 1260.199219 2162.703125 1255.589844 C 2169.613281 1251.847656 2171.34375 1251.847656 2180.554688 1256.457031 C 2186.3125 1259.046875 2194.085938 1266.535156 2198.40625 1273.445312 L 2206.175781 1285.542969 L 2213.664062 1276.328125 C 2222.875 1264.808594 2227.769531 1264.808594 2238.421875 1275.75 C 2243.027344 1280.359375 2248.210938 1284.390625 2249.9375 1284.390625 C 2255.984375 1284.390625 2268.078125 1268.550781 2280.167969 1244.074219 C 2287.078125 1230.539062 2295.425781 1215.851562 2298.882812 1210.953125 C 2306.367188 1201.164062 2324.792969 1164.589844 2334.582031 1140.398438 C 2341.777344 1122.832031 2351.28125 1109.585938 2354.445312 1112.753906 C 2355.597656 1113.90625 2356.460938 1144.429688 2356.460938 1180.429688 C 2356.460938 1238.601562 2357.039062 1246.664062 2361.644531 1253.863281 C 2365.960938 1259.910156 2367.691406 1261.0625 2370.855469 1258.472656 C 2380.070312 1250.695312 2381.796875 1235.722656 2379.78125 1174.382812 C 2378.34375 1136.65625 2378.628906 1114.480469 2380.355469 1114.480469 C 2384.675781 1114.480469 2391.585938 1126.578125 2399.359375 1146.734375 C 2406.84375 1166.605469 2421.238281 1195.117188 2446.574219 1240.328125 C 2472.484375 1286.40625 2480.257812 1292.453125 2492.636719 1275.75 C 2500.410156 1265.09375 2504.441406 1264.808594 2513.367188 1274.308594 C 2522.292969 1283.8125 2525.171875 1283.527344 2532.082031 1270.855469 C 2535.246094 1264.808594 2541.292969 1258.183594 2545.324219 1255.878906 C 2560.292969 1247.527344 2572.960938 1256.457031 2597.433594 1292.164062 C 2608.660156 1309.15625 2612.980469 1313.1875 2618.738281 1313.1875 C 2630.542969 1313.1875 2637.164062 1308.003906 2637.164062 1299.363281 C 2637.164062 1289.859375 2627.953125 1280.359375 2605.496094 1266.824219 C 2596.859375 1261.640625 2585.628906 1254.441406 2580.449219 1250.695312 C 2560.292969 1235.433594 2555.402344 1200.875 2573.824219 1200.875 C 2576.417969 1200.875 2581.023438 1199.148438 2584.191406 1196.84375 C 2589.371094 1192.8125 2589.371094 1192.234375 2579.007812 1181.582031 C 2566.628906 1168.910156 2565.1875 1161.132812 2573.824219 1153.359375 C 2584.476562 1143.855469 2579.296875 1134.929688 2554.25 1117.363281 C 2549.066406 1113.90625 2545.324219 1109.296875 2546.1875 1107.28125 C 2547.914062 1102.675781 2538.414062 1094.035156 2523.445312 1086.257812 L 2511.925781 1080.210938 L 2523.445312 1079.925781 C 2539.855469 1079.925781 2556.839844 1074.742188 2564.902344 1067.539062 C 2576.128906 1057.171875 2588.507812 1028.375 2627.664062 920.09375 C 2631.695312 908.863281 2635.722656 892.160156 2636.300781 882.65625 C 2637.738281 866.820312 2637.164062 864.226562 2630.253906 856.164062 C 2616.148438 839.171875 2589.371094 841.765625 2545.898438 863.652344 C 2485.152344 894.175781 2428.148438 954.941406 2397.054688 1022.328125 L 2387.265625 1043.925781 L 2381.507812 1030.96875 C 2374.886719 1015.703125 2366.25 1007.066406 2359.917969 1009.65625 C 2357.324219 1010.519531 2351.855469 1020.3125 2347.535156 1031.542969 L 2339.761719 1051.703125 L 2325.082031 1021.753906 C 2305.214844 981.722656 2283.621094 951.195312 2254.257812 921.535156 C 2198.691406 865.957031 2131.324219 833.414062 2101.957031 848.675781 Z M 2101.957031 848.675781 "/>
<path style=" stroke:none;fill-rule:nonzero;fill:rgb(0%,0%,0%);fill-opacity:1;" d="M 851.03125 914.335938 C 827.710938 920.671875 809.285156 943.710938 799.210938 979.132812 C 793.742188 997.851562 768.980469 1141.265625 770.707031 1143.28125 C 771.285156 1143.855469 779.921875 1144.71875 789.710938 1144.71875 C 804.679688 1144.71875 809.574219 1143.28125 819.363281 1136.65625 C 842.972656 1120.527344 860.246094 1087.125 862.835938 1052.566406 C 864.851562 1026.359375 861.109375 1016.570312 849.304688 1016.570312 C 842.972656 1016.570312 837.214844 1020.023438 826.847656 1030.105469 C 819.074219 1037.878906 810.152344 1047.671875 806.984375 1052.566406 C 800.9375 1060.917969 800.9375 1060.628906 807.847656 1020.886719 C 819.363281 955.230469 830.589844 929.886719 849.878906 925.855469 C 860.820312 923.550781 872.335938 916.925781 872.335938 912.894531 C 872.335938 909.152344 868.59375 909.441406 851.03125 914.335938 Z M 841.820312 1060.054688 C 841.53125 1099.792969 825.984375 1128.878906 804.96875 1128.878906 C 791.726562 1128.878906 789.996094 1124.5625 794.316406 1104.402344 C 798.921875 1083.667969 810.4375 1061.492188 823.683594 1047.671875 C 838.941406 1031.832031 842.109375 1033.847656 841.820312 1060.054688 Z M 841.820312 1060.054688 "/>
<path style=" stroke:none;fill-rule:nonzero;fill:rgb(0%,0%,0%);fill-opacity:1;" d="M 1421.363281 914.046875 C 1397.753906 920.382812 1380.191406 942.269531 1369.253906 979.132812 C 1364.359375 994.96875 1338.445312 1140.976562 1339.886719 1142.703125 C 1340.460938 1142.992188 1347.371094 1144.144531 1355.144531 1145.007812 C 1372.132812 1147.3125 1386.527344 1140.6875 1402.359375 1123.984375 C 1434.894531 1090.003906 1445.257812 1016.570312 1417.621094 1016.570312 C 1409.558594 1016.570312 1387.964844 1035 1378.753906 1050.261719 C 1375.296875 1055.734375 1372.132812 1059.765625 1371.84375 1059.191406 C 1370.402344 1058.039062 1383.359375 986.042969 1387.679688 970.492188 C 1395.164062 943.132812 1409.558594 924.414062 1423.378906 924.414062 C 1430.289062 924.414062 1442.378906 916.925781 1442.378906 912.609375 C 1442.378906 909.152344 1438.347656 909.441406 1421.363281 914.046875 Z M 1411.574219 1062.355469 C 1411.285156 1081.652344 1409.558594 1089.140625 1402.648438 1104.113281 C 1393.148438 1124.273438 1386.527344 1129.746094 1372.417969 1128.304688 C 1363.207031 1127.441406 1363.207031 1127.441406 1363.496094 1112.179688 C 1364.070312 1100.660156 1366.949219 1091.15625 1374.433594 1075.605469 C 1384.800781 1054.871094 1402.359375 1035.289062 1408.695312 1037.589844 C 1410.996094 1038.453125 1411.863281 1046.804688 1411.574219 1062.355469 Z M 1411.574219 1062.355469 "/>
<path style=" stroke:none;fill-rule:nonzero;fill:rgb(0%,0%,0%);fill-opacity:1;" d="M 1873.652344 914.046875 C 1848.03125 920.960938 1831.90625 939.101562 1819.527344 975.097656 C 1816.074219 984.316406 1807.722656 1025.785156 1800.527344 1066.675781 C 1793.328125 1107.859375 1786.996094 1142.703125 1786.132812 1143.855469 C 1785.269531 1145.007812 1786.707031 1146.160156 1789.296875 1146.160156 C 1797.070312 1146.160156 1807.4375 1133.199219 1809.453125 1121.394531 C 1816.359375 1078.195312 1839.96875 1036.726562 1857.53125 1036.726562 C 1864.441406 1036.726562 1864.441406 1048.535156 1856.953125 1084.53125 C 1850.910156 1113.90625 1849.183594 1137.519531 1852.347656 1142.992188 C 1858.683594 1153.070312 1882.003906 1136.65625 1889.777344 1117.074219 C 1892.367188 1110.449219 1893.804688 1104.402344 1892.65625 1103.25 C 1891.503906 1102.386719 1890.351562 1102.675781 1889.777344 1104.402344 C 1886.320312 1113.617188 1876.53125 1126 1872.789062 1126 C 1867.320312 1126 1867.03125 1127.730469 1875.667969 1080.789062 C 1879.699219 1059.191406 1882.867188 1035.863281 1882.289062 1029.527344 C 1881.425781 1019.160156 1880.5625 1018.007812 1873.367188 1017.144531 C 1862.136719 1015.703125 1845.4375 1027.222656 1831.90625 1045.367188 C 1826.148438 1053.140625 1820.96875 1059.191406 1820.679688 1058.902344 C 1818.664062 1056.886719 1834.5 975.097656 1839.394531 961.5625 C 1846.300781 943.710938 1859.835938 928.160156 1871.0625 925.566406 C 1885.746094 922.398438 1887.183594 921.535156 1890.925781 915.777344 C 1895.246094 908.863281 1893.519531 908.574219 1873.652344 914.046875 Z M 1873.652344 914.046875 "/>
<path style=" stroke:none;fill-rule:nonzero;fill:rgb(0%,0%,0%);fill-opacity:1;" d="M 1978.449219 915.777344 C 1975.859375 920.09375 1974.992188 958.683594 1974.992188 1080.5 C 1975.28125 1250.984375 1974.992188 1249.832031 1989.390625 1249.832031 C 2003.785156 1249.832031 2003.496094 1250.984375 2003.496094 1079.925781 C 2003.496094 951.484375 2002.921875 919.230469 1999.753906 914.910156 C 1994.570312 908.289062 1983.054688 908.574219 1978.449219 915.777344 Z M 1978.449219 915.777344 "/>
<path style=" stroke:none;fill-rule:nonzero;fill:rgb(0%,0%,0%);fill-opacity:1;" d="M 313.8125 955.804688 C 292.21875 960.414062 273.503906 976.539062 273.503906 991.515625 C 273.503906 995.257812 276.097656 993.816406 284.445312 985.464844 C 297.402344 971.644531 313.523438 966.171875 332.238281 968.765625 L 345.480469 970.78125 L 335.691406 982.585938 C 323.597656 996.410156 316.113281 1011.960938 297.6875 1060.917969 C 282.429688 1102.386719 271.777344 1118.511719 253.929688 1128.304688 C 235.789062 1138.382812 238.382812 1141.839844 263.140625 1141.839844 C 280.125 1141.839844 285.597656 1140.6875 290.492188 1136.367188 C 299.128906 1128.59375 297.976562 1126.863281 285.882812 1128.304688 L 274.945312 1129.746094 L 285.882812 1117.648438 C 291.929688 1111.027344 299.414062 1099.792969 302.871094 1092.882812 C 309.203125 1079.925781 309.203125 1079.925781 324.175781 1079.925781 C 332.523438 1079.925781 341.160156 1079.347656 343.464844 1078.195312 C 346.917969 1077.042969 347.78125 1081.941406 348.933594 1105.554688 C 350.375 1137.230469 354.691406 1146.160156 367.648438 1146.160156 C 375.132812 1146.160156 397.300781 1127.441406 397.300781 1121.105469 C 397.300781 1117.648438 395.863281 1117.9375 388.953125 1121.96875 C 371.390625 1132.335938 368.511719 1124.5625 368.511719 1062.933594 C 368.511719 1018.585938 371.679688 989.785156 378.011719 971.066406 L 382.042969 959.835938 L 356.421875 957.820312 C 342.601562 956.667969 329.359375 955.515625 327.34375 954.941406 C 325.613281 954.363281 319.28125 954.941406 313.8125 955.804688 Z M 355.269531 993.816406 C 353.253906 1003.609375 350.664062 1023.191406 349.511719 1037.015625 L 347.496094 1062.644531 L 330.796875 1062.644531 C 321.296875 1062.644531 313.8125 1062.070312 313.8125 1061.207031 C 313.8125 1060.628906 318.992188 1046.519531 325.328125 1029.816406 C 336.265625 1001.882812 351.238281 976.25 356.421875 976.25 C 357.859375 976.25 357.285156 984.316406 355.269531 993.816406 Z M 355.269531 993.816406 "/>
<path style=" stroke:none;fill-rule:nonzero;fill:rgb(0%,0%,0%);fill-opacity:1;" d="M 1136.917969 956.09375 C 1119.644531 958.972656 1102.367188 968.1875 1092.867188 979.132812 C 1080.199219 994.394531 1083.945312 1003.035156 1097.1875 988.921875 C 1119.929688 964.15625 1174.632812 963.292969 1191.617188 987.484375 C 1207.453125 1009.65625 1207.164062 1062.070312 1191.042969 1092.882812 C 1185.285156 1104.113281 1169.449219 1119.089844 1159.375 1122.832031 C 1154.765625 1124.5625 1142.964844 1126 1132.886719 1126 L 1114.75 1126 L 1117.339844 1117.9375 C 1119.066406 1113.617188 1124.539062 1083.667969 1130.007812 1051.125 C 1135.191406 1018.585938 1140.371094 989.785156 1141.523438 986.90625 C 1145.554688 977.402344 1132.597656 982.300781 1123.671875 993.816406 C 1121.660156 996.121094 1115.613281 1024.34375 1110.140625 1056.308594 C 1099.488281 1117.074219 1098.339844 1121.105469 1088.550781 1130.03125 C 1077.320312 1140.113281 1080.777344 1141.839844 1116.476562 1142.414062 C 1156.78125 1143.28125 1171.175781 1139.535156 1190.464844 1122.546875 C 1224.726562 1092.308594 1237.105469 1025.496094 1215.515625 986.90625 C 1208.890625 974.8125 1203.996094 970.492188 1191.617188 964.15625 C 1174.054688 955.515625 1156.207031 952.925781 1136.917969 956.09375 Z M 1136.917969 956.09375 "/>
<path style=" stroke:none;fill-rule:nonzero;fill:rgb(0%,0%,0%);fill-opacity:1;" d="M 1744.386719 987.484375 C 1739.78125 992.378906 1736.035156 999 1736.035156 1003.035156 C 1736.035156 1015.417969 1733.15625 1019.449219 1723.945312 1019.449219 C 1714.445312 1019.449219 1704.367188 1024.054688 1704.367188 1028.085938 C 1704.367188 1029.816406 1710.125 1030.96875 1717.324219 1030.96875 C 1732.871094 1030.96875 1732.292969 1028.375 1724.519531 1075.605469 C 1715.597656 1130.609375 1717.324219 1146.160156 1732.292969 1146.160156 C 1740.929688 1146.160156 1761.949219 1126.578125 1761.949219 1118.800781 C 1761.949219 1114.480469 1760.796875 1115.058594 1754.75 1121.394531 C 1746.976562 1129.746094 1739.492188 1131.183594 1737.1875 1124.5625 C 1736.324219 1122.257812 1738.339844 1103.25 1741.507812 1082.226562 C 1750.433594 1026.9375 1748.992188 1030.96875 1760.21875 1030.96875 C 1765.980469 1030.96875 1771.738281 1028.664062 1774.902344 1025.207031 C 1780.085938 1019.449219 1779.796875 1019.449219 1766.265625 1019.449219 L 1752.449219 1019.449219 L 1754.175781 1005.625 C 1755.039062 998.136719 1756.765625 989.210938 1757.628906 985.464844 C 1760.507812 976.539062 1754.75 977.402344 1744.386719 987.484375 Z M 1744.386719 987.484375 "/>
<path style=" stroke:none;fill-rule:nonzero;fill:rgb(0%,0%,0%);fill-opacity:1;" d="M 434.152344 1022.328125 C 424.941406 1029.527344 414.574219 1045.65625 414.574219 1052.855469 C 414.574219 1056.597656 416.589844 1055.15625 421.773438 1047.382812 C 430.699219 1034.421875 438.757812 1032.984375 436.457031 1044.503906 C 435.59375 1049.109375 430.121094 1082.226562 424.652344 1118.800781 C 410.832031 1208.363281 404.210938 1229.097656 386.9375 1235.433594 C 367.359375 1242.921875 350.949219 1235.722656 343.753906 1216.136719 C 337.417969 1198.570312 337.996094 1199.148438 331.085938 1205.195312 C 323.3125 1212.394531 323.886719 1224.488281 332.523438 1235.144531 C 347.207031 1252.425781 376.859375 1254.441406 398.453125 1239.175781 C 414.289062 1227.945312 429.546875 1198.285156 434.730469 1168.332031 C 438.183594 1147.886719 439.046875 1146.160156 445.382812 1146.160156 C 462.367188 1146.160156 488.566406 1124.5625 500.945312 1100.082031 C 514.765625 1073.300781 519.082031 1032.121094 509.296875 1020.601562 C 502.671875 1012.535156 492.019531 1015.992188 476.761719 1031.542969 C 468.414062 1039.894531 459.777344 1049.972656 457.183594 1054.007812 C 452.578125 1060.917969 452.289062 1060.628906 452.867188 1039.605469 C 453.441406 1019.734375 452.867188 1018.007812 447.398438 1017.144531 C 444.230469 1016.570312 438.183594 1018.871094 434.152344 1022.328125 Z M 494.035156 1044.214844 C 498.644531 1062.644531 486.261719 1109.296875 473.308594 1122.257812 C 466.6875 1128.878906 451.425781 1131.183594 444.519531 1126.578125 C 439.625 1123.410156 447.398438 1091.441406 458.050781 1071.285156 C 466.6875 1054.871094 483.382812 1036.726562 489.429688 1036.726562 C 490.871094 1036.726562 493.171875 1040.183594 494.035156 1044.214844 Z M 494.035156 1044.214844 "/>
<path style=" stroke:none;fill-rule:nonzero;fill:rgb(0%,0%,0%);fill-opacity:1;" d="M 553.34375 1023.769531 C 544.417969 1031.253906 534.34375 1049.109375 536.070312 1054.582031 C 536.644531 1056.308594 540.101562 1053.140625 543.84375 1047.382812 C 547.296875 1041.621094 552.191406 1036.726562 554.496094 1036.726562 C 559.390625 1036.726562 559.675781 1032.984375 551.617188 1084.820312 C 543.265625 1136.65625 544.132812 1145.007812 558.527344 1144.144531 C 568.601562 1143.855469 584.148438 1130.894531 599.121094 1110.449219 L 607.46875 1099.21875 L 605.742188 1121.105469 C 604.015625 1140.6875 604.300781 1143.28125 608.910156 1145.007812 C 620.136719 1149.328125 641.730469 1129.746094 646.335938 1110.738281 C 649.214844 1099.507812 644.03125 1100.945312 638.273438 1113.042969 C 633.667969 1122.546875 626.46875 1128.59375 623.304688 1125.425781 C 622.441406 1124.847656 626.46875 1100.371094 631.941406 1071.285156 C 637.410156 1042.199219 641.152344 1017.71875 640.578125 1017.144531 C 637.988281 1014.550781 627.335938 1020.3125 624.457031 1025.785156 C 622.726562 1029.238281 619.5625 1039.894531 617.257812 1049.972656 C 612.652344 1072.722656 600.847656 1098.066406 588.179688 1111.601562 C 578.390625 1122.546875 568.601562 1127.441406 565.722656 1123.121094 C 564.859375 1121.679688 567.449219 1099.507812 571.480469 1073.875 C 575.511719 1048.535156 578.101562 1024.917969 577.238281 1022.039062 C 574.648438 1014.265625 563.707031 1015.128906 553.34375 1023.769531 Z M 553.34375 1023.769531 "/>
<path style=" stroke:none;fill-rule:nonzero;fill:rgb(0%,0%,0%);fill-opacity:1;" d="M 680.019531 1029.527344 C 668.792969 1042.199219 663.035156 1054.007812 667.929688 1054.007812 C 669.367188 1054.007812 673.109375 1049.972656 676.566406 1045.367188 C 682.898438 1036.4375 690.960938 1033.847656 690.960938 1040.757812 C 690.960938 1048.246094 676.566406 1130.03125 673.6875 1138.097656 C 671.671875 1144.429688 671.957031 1146.160156 675.125 1146.160156 C 682.035156 1146.160156 696.71875 1128.878906 696.71875 1120.816406 C 696.71875 1097.492188 716.007812 1052.855469 729.828125 1043.636719 C 739.039062 1037.589844 747.386719 1039.605469 746.523438 1047.671875 C 745.949219 1051.125 747.101562 1054.007812 748.539062 1054.007812 C 753.722656 1054.007812 763.222656 1035.574219 762.359375 1026.648438 C 761.496094 1019.160156 760.054688 1018.007812 752.28125 1017.144531 C 741.628906 1015.992188 726.082031 1028.375 713.992188 1047.671875 L 706.507812 1060.054688 L 706.507812 1039.03125 C 706.792969 1018.585938 706.507812 1018.007812 699.308594 1017.144531 C 693.261719 1016.570312 689.234375 1019.160156 680.019531 1029.527344 Z M 680.019531 1029.527344 "/>
<path style=" stroke:none;fill-rule:nonzero;fill:rgb(0%,0%,0%);fill-opacity:1;" d="M 933.660156 1022.617188 C 906.886719 1035.863281 883.566406 1074.742188 881.550781 1109.296875 C 880.109375 1134.929688 882.125 1142.703125 891.050781 1145.007812 C 901.128906 1147.597656 915.808594 1137.230469 931.070312 1116.785156 L 943.449219 1100.660156 L 943.160156 1122.546875 C 942.871094 1142.992188 943.449219 1144.71875 948.917969 1145.582031 C 952.375 1146.160156 959.28125 1142.992188 964.464844 1138.382812 C 974.253906 1130.320312 986.632812 1106.707031 982.890625 1103.539062 C 982.027344 1102.386719 980.585938 1102.675781 980.011719 1104.402344 C 977.132812 1112.179688 967.054688 1126 964.464844 1126 C 958.132812 1126 958.707031 1116.785156 968.207031 1069.558594 C 973.679688 1042.773438 977.421875 1020.023438 976.84375 1018.585938 C 974.253906 1013.976562 945.464844 1016.570312 933.660156 1022.617188 Z M 952.660156 1033.558594 C 958.417969 1037.304688 954.101562 1056.023438 941.433594 1081.941406 C 916.097656 1133.777344 892.203125 1138.097656 902.277344 1088.851562 C 909.476562 1054.582031 925.023438 1030.96875 940.570312 1030.96875 C 944.886719 1030.96875 950.359375 1032.121094 952.660156 1033.558594 Z M 952.660156 1033.558594 "/>
<path style=" stroke:none;fill-rule:nonzero;fill:rgb(0%,0%,0%);fill-opacity:1;" d="M 1284.898438 1024.917969 C 1254.09375 1047.09375 1233.9375 1108.722656 1249.199219 1133.777344 C 1259.5625 1150.765625 1280.003906 1149.902344 1299.867188 1131.472656 C 1311.960938 1120.242188 1321.171875 1104.402344 1317.71875 1100.945312 C 1316.566406 1100.082031 1310.808594 1104.691406 1305.050781 1111.3125 C 1291.519531 1126 1278.851562 1129.457031 1269.925781 1120.527344 C 1266.472656 1117.074219 1263.882812 1111.027344 1263.882812 1106.417969 C 1264.167969 1099.792969 1267.046875 1096.914062 1282.019531 1088.277344 C 1303.898438 1075.316406 1318.582031 1056.308594 1320.886719 1038.167969 C 1321.75 1030.105469 1320.886719 1023.769531 1318.582031 1020.886719 C 1312.824219 1013.976562 1297.566406 1015.703125 1284.898438 1024.917969 Z M 1284.898438 1024.917969 "/>
<path style=" stroke:none;fill-rule:nonzero;fill:rgb(0%,0%,0%);fill-opacity:1;" d="M 1468.578125 1030.105469 C 1457.351562 1042.773438 1451.304688 1055.15625 1454.757812 1058.613281 C 1455.621094 1059.476562 1458.214844 1056.597656 1460.804688 1051.988281 C 1465.410156 1042.488281 1473.472656 1035 1475.777344 1037.589844 C 1477.789062 1039.320312 1463.394531 1126.289062 1459.363281 1136.65625 C 1455.910156 1146.160156 1457.925781 1148.175781 1467.136719 1143.28125 C 1476.640625 1138.097656 1478.941406 1133.488281 1484.125 1109.011719 C 1491.320312 1073.875 1514.355469 1036.726562 1528.460938 1036.726562 C 1536.234375 1036.726562 1536.234375 1043.925781 1528.75 1084.820312 C 1525.582031 1101.808594 1522.414062 1119.378906 1521.550781 1123.984375 C 1519.535156 1135.214844 1524.429688 1146.160156 1531.628906 1146.160156 C 1544.582031 1146.160156 1572.222656 1110.449219 1564.738281 1103.539062 C 1563.585938 1102.386719 1562.144531 1102.675781 1561.570312 1104.402344 C 1558.113281 1113.617188 1548.328125 1126 1544.582031 1126 C 1539.113281 1126 1539.113281 1126 1547.75 1080.789062 C 1551.78125 1059.476562 1554.660156 1036.726562 1554.085938 1030.105469 C 1553.21875 1019.160156 1552.355469 1018.007812 1545.160156 1017.144531 C 1533.929688 1015.703125 1517.234375 1027.222656 1503.703125 1045.367188 C 1497.945312 1053.140625 1492.761719 1059.191406 1492.472656 1058.902344 C 1492.1875 1058.613281 1492.761719 1051.703125 1493.914062 1043.925781 C 1496.503906 1022.617188 1495.066406 1016.570312 1487.003906 1016.570312 C 1482.683594 1016.570312 1476.351562 1021.175781 1468.578125 1030.105469 Z M 1468.578125 1030.105469 "/>
<path style=" stroke:none;fill-rule:nonzero;fill:rgb(0%,0%,0%);fill-opacity:1;" d="M 1638.726562 1021.753906 C 1623.46875 1029.816406 1606.480469 1048.246094 1597.558594 1065.8125 C 1583.160156 1094.609375 1579.707031 1134.0625 1590.648438 1143.28125 C 1600.148438 1151.34375 1623.46875 1135.792969 1641.316406 1109.296875 C 1648.804688 1098.355469 1649.953125 1097.203125 1648.515625 1103.828125 C 1643.910156 1123.984375 1643.621094 1136.082031 1647.652344 1141.839844 C 1651.96875 1147.3125 1652.546875 1147.3125 1662.046875 1142.703125 C 1672.988281 1137.519531 1688.246094 1115.34375 1686.519531 1106.992188 C 1685.941406 1103.539062 1683.640625 1105.265625 1678.457031 1113.328125 C 1674.425781 1119.089844 1669.53125 1124.5625 1667.804688 1125.425781 C 1662.046875 1127.152344 1663.199219 1113.90625 1672.699219 1066.964844 C 1677.59375 1043.636719 1681.335938 1022.617188 1681.335938 1020.3125 C 1681.335938 1014.550781 1650.53125 1015.703125 1638.726562 1021.753906 Z M 1660.320312 1034.710938 C 1662.621094 1037.304688 1654.273438 1064.375 1645.925781 1082.226562 C 1634.410156 1106.128906 1619.148438 1123.695312 1611.089844 1122.546875 C 1605.617188 1121.679688 1605.042969 1119.953125 1605.332031 1102.960938 C 1605.90625 1079.347656 1615.40625 1053.140625 1628.648438 1039.894531 C 1637 1031.542969 1639.589844 1030.390625 1648.804688 1031.832031 C 1654.273438 1032.984375 1659.457031 1034.136719 1660.320312 1034.710938 Z M 1660.320312 1034.710938 "/>
<path style=" stroke:none;fill-rule:nonzero;fill:rgb(0%,0%,0%);fill-opacity:1;" d="M 564.285156 1439.035156 C 499.21875 1567.1875 423.789062 1646.667969 343.464844 1671.722656 C 291.644531 1687.5625 276.671875 1698.214844 259.109375 1731.046875 C 252.488281 1743.71875 249.609375 1752.933594 249.320312 1763.589844 C 249.035156 1777.699219 249.320312 1778.273438 256.808594 1779.140625 C 261.699219 1779.714844 275.808594 1775.105469 292.792969 1767.332031 C 344.617188 1743.429688 362.179688 1743.429688 434.730469 1765.605469 C 487.703125 1781.730469 516.78125 1783.457031 550.464844 1773.089844 C 591.058594 1760.421875 633.378906 1730.757812 655.261719 1699.945312 C 671.09375 1678.058594 675.703125 1665.960938 670.808594 1660.203125 C 665.625 1654.15625 659.003906 1654.730469 627.910156 1664.8125 C 593.648438 1676.332031 554.496094 1678.058594 532.039062 1669.417969 C 524.265625 1666.539062 518.21875 1663.082031 518.21875 1661.644531 C 518.21875 1660.492188 525.707031 1653.867188 534.917969 1646.957031 C 575.800781 1616.140625 623.589844 1558.835938 663.035156 1493.75 C 680.308594 1465.242188 713.992188 1402.171875 713.992188 1398.140625 C 713.992188 1397.277344 685.203125 1396.703125 649.789062 1396.703125 L 585.875 1396.703125 Z M 564.285156 1439.035156 "/>
<path style=" stroke:none;fill-rule:nonzero;fill:rgb(0%,0%,0%);fill-opacity:1;" d="M 1054.867188 1447.675781 C 1061.199219 1623.34375 1070.414062 1690.152344 1094.019531 1738.535156 C 1114.75 1780.578125 1144.402344 1799.875 1188.453125 1799.875 C 1243.152344 1799.875 1301.882812 1770.210938 1357.738281 1714.34375 C 1396.890625 1675.464844 1433.167969 1616.71875 1430.289062 1597.136719 C 1428.558594 1585.617188 1414.453125 1587.921875 1387.679688 1604.335938 C 1329.523438 1639.757812 1314.261719 1648.394531 1301.882812 1651.851562 C 1261.578125 1664.234375 1237.105469 1647.53125 1225.015625 1599.726562 C 1219.542969 1577.265625 1212.636719 1508.726562 1210.621094 1453.144531 C 1209.46875 1429.242188 1208.316406 1406.78125 1207.453125 1403.039062 L 1206.300781 1396.703125 L 1053.136719 1396.703125 Z M 1054.867188 1447.675781 "/>
<path style=" stroke:none;fill-rule:nonzero;fill:rgb(0%,0%,0%);fill-opacity:1;" d="M 1708.6875 1403.039062 C 1707.824219 1406.78125 1703.214844 1433.5625 1698.609375 1462.9375 C 1686.519531 1535.507812 1680.183594 1560.851562 1665.5 1591.089844 C 1651.683594 1619.886719 1631.242188 1645.515625 1605.332031 1666.539062 C 1595.828125 1674.027344 1582.011719 1685.832031 1574.523438 1692.746094 C 1553.796875 1711.75 1531.339844 1759.269531 1535.945312 1773.957031 C 1538.539062 1782.59375 1549.191406 1781.15625 1587.769531 1767.621094 C 1620.589844 1756.101562 1624.332031 1755.523438 1661.183594 1754.371094 C 1700.050781 1753.21875 1717.035156 1754.949219 1842.558594 1772.804688 C 1885.457031 1778.851562 1989.390625 1781.441406 2026.816406 1777.121094 C 2170.765625 1760.421875 2280.457031 1708.296875 2384.964844 1606.925781 C 2421.527344 1571.503906 2454.347656 1531.476562 2483.425781 1487.414062 C 2502.425781 1458.617188 2533.519531 1403.324219 2533.519531 1398.71875 C 2533.519531 1397.566406 2496.382812 1396.703125 2450.894531 1396.703125 L 2367.976562 1396.988281 L 2355.597656 1419.164062 C 2324.214844 1476.183594 2264.332031 1543.859375 2215.101562 1578.992188 C 2127.003906 1641.195312 2036.890625 1663.082031 1897.835938 1656.171875 C 1844.289062 1653.292969 1789.585938 1646.957031 1785.84375 1643.210938 C 1784.980469 1642.636719 1787.570312 1637.453125 1791.601562 1632.269531 C 1801.679688 1619.023438 1815.496094 1588.785156 1820.96875 1568.050781 C 1823.269531 1558.546875 1830.46875 1519.667969 1836.800781 1481.65625 C 1843.136719 1443.640625 1849.183594 1409.085938 1850.046875 1404.476562 L 1851.773438 1396.703125 L 1710.125 1396.703125 Z M 1708.6875 1403.039062 "/>
</g>
</svg>
