<?xml version="1.0" encoding="UTF-8"?>
<svg xmlns="http://www.w3.org/2000/svg" xmlns:xlink="http://www.w3.org/1999/xlink" width="1999px" height="1500px" viewBox="0 0 1998 1500" version="1.1">
<g id="surface1">
<path style=" stroke:none;fill-rule:nonzero;fill:rgb(0%,0%,0%);fill-opacity:1;" d="M 565.582031 251.269531 C 548.609375 253.265625 511.058594 262.863281 492.679688 270.058594 C 430.964844 294.042969 377.839844 341.816406 353.867188 394.589844 C 339.292969 426.769531 333.699219 455.757812 341.085938 461.953125 C 346.28125 466.351562 353.273438 460.753906 370.847656 437.566406 C 394.617188 405.984375 406.800781 392.59375 426.96875 376 C 458.929688 349.414062 492.082031 334.019531 532.628906 326.824219 C 557.195312 322.425781 607.128906 320.828125 638.488281 323.628906 C 664.25 325.824219 722.972656 335.222656 725.765625 337.621094 C 726.566406 338.222656 720.175781 344.015625 711.390625 350.613281 C 692.015625 364.804688 658.257812 399.183594 642.082031 420.972656 C 625.507812 443.5625 605.933594 475.148438 590.351562 504.730469 L 577.167969 529.714844 L 659.058594 529.714844 L 664.652344 516.527344 C 672.839844 497.136719 695.8125 455.554688 710.386719 433.769531 C 732.359375 400.785156 757.925781 374.601562 780.09375 362.605469 C 788.683594 358.011719 789.480469 357.808594 788.484375 361.007812 C 785.089844 372.203125 776.898438 406.183594 772.304688 427.769531 C 767.3125 451.359375 755.328125 521.722656 755.328125 527.121094 C 755.328125 530.917969 847.003906 530.917969 848.003906 527.121094 C 848.402344 525.917969 850.601562 509.925781 853 491.535156 C 863.980469 404.980469 882.359375 331.421875 904.925781 284.851562 C 910.320312 273.851562 914.515625 264.660156 914.113281 264.261719 C 913.714844 263.859375 907.324219 265.460938 899.933594 267.65625 C 856.792969 280.453125 826.230469 279.648438 734.355469 263.65625 C 676.238281 253.664062 639.886719 249.871094 604.730469 250.265625 C 586.953125 250.265625 569.378906 250.867188 565.582031 251.269531 Z M 565.582031 251.269531 "/>
<path style=" stroke:none;fill-rule:nonzero;fill:rgb(0%,0%,0%);fill-opacity:1;" d="M 1395.464844 251.066406 C 1392.269531 251.464844 1379.085938 253.265625 1366.503906 255.0625 C 1242.273438 272.054688 1135.816406 341.019531 1091.875 432.769531 C 1079.289062 458.957031 1078.09375 474.34375 1088.277344 476.945312 C 1095.871094 478.945312 1101.261719 474.75 1121.632812 451.558594 C 1184.550781 380 1262.046875 339.621094 1358.511719 327.824219 C 1385.476562 324.628906 1446.992188 325.027344 1472.363281 328.621094 C 1567.632812 342.214844 1628.550781 382.796875 1665.898438 457.757812 C 1675.289062 476.148438 1685.671875 503.730469 1690.066406 521.121094 L 1692.265625 529.714844 L 1752.984375 529.714844 C 1786.539062 529.714844 1813.902344 529.519531 1813.902344 529.117188 C 1813.902344 525.320312 1798.921875 475.148438 1794.125 463.351562 C 1753.582031 361.40625 1682.875 296.042969 1581.414062 266.65625 C 1538.671875 254.265625 1516.105469 251.464844 1455.382812 250.867188 C 1425.824219 250.464844 1398.859375 250.664062 1395.464844 251.066406 Z M 1395.464844 251.066406 "/>
<path style=" stroke:none;fill-rule:nonzero;fill:rgb(0%,0%,0%);fill-opacity:1;" d="M 1371.699219 391.988281 C 1350.328125 395.589844 1322.164062 413.980469 1296.597656 441.164062 C 1277.027344 461.953125 1269.632812 476.546875 1264.640625 504.527344 C 1262.445312 516.527344 1260.648438 527.121094 1260.648438 528.121094 C 1260.648438 528.917969 1282.214844 529.714844 1308.585938 529.714844 L 1356.519531 529.714844 L 1357.519531 525.121094 C 1357.917969 522.722656 1360.316406 509.527344 1362.507812 495.734375 C 1369.699219 452.160156 1374.292969 438.566406 1390.472656 413.582031 C 1398.058594 401.785156 1400.257812 394.988281 1397.066406 393.191406 C 1393.269531 390.992188 1380.683594 390.390625 1371.699219 391.988281 Z M 1371.699219 391.988281 "/>
<path style=" stroke:none;fill-rule:nonzero;fill:rgb(0%,0%,0%);fill-opacity:1;" d="M 1458.578125 589.085938 C 1449.992188 593.484375 1445.597656 603.277344 1447.597656 614.269531 C 1450.390625 631.0625 1485.746094 728.410156 1492.535156 738.007812 C 1498.527344 746.398438 1507.511719 749.601562 1524.691406 749.601562 L 1539.269531 749.601562 L 1528.484375 755.195312 C 1519.898438 759.394531 1517.300781 761.992188 1515.902344 766.789062 C 1514.707031 771.1875 1511.308594 774.988281 1503.519531 780.183594 C 1489.9375 789.179688 1488.140625 793.976562 1495.132812 801.371094 C 1502.121094 808.566406 1501.722656 812.371094 1493.332031 818.761719 C 1484.144531 825.757812 1484.347656 830.554688 1493.734375 834.953125 C 1510.109375 842.75 1506.71875 857.542969 1485.144531 873.132812 C 1461.777344 889.722656 1455.78125 894.523438 1452.988281 898.722656 C 1450.390625 902.71875 1450.789062 903.71875 1454.984375 908.714844 C 1459.378906 913.710938 1460.578125 914.109375 1465.570312 912.511719 C 1469.164062 911.3125 1473.761719 906.714844 1477.355469 900.722656 C 1487.539062 884.328125 1495.328125 874.734375 1500.722656 871.535156 C 1505.519531 868.9375 1506.71875 868.9375 1513.105469 872.136719 C 1517.101562 873.933594 1522.492188 879.128906 1525.492188 883.925781 L 1530.882812 892.324219 L 1536.078125 885.929688 C 1542.464844 877.933594 1545.863281 877.933594 1553.253906 885.527344 C 1556.445312 888.726562 1560.042969 891.527344 1561.242188 891.527344 C 1565.4375 891.527344 1573.828125 880.527344 1582.214844 863.539062 C 1587.003906 854.148438 1592.796875 843.953125 1595.199219 840.550781 C 1600.390625 833.757812 1613.171875 808.371094 1619.964844 791.574219 C 1624.957031 779.382812 1631.550781 770.1875 1633.742188 772.386719 C 1634.542969 773.1875 1635.140625 794.375 1635.140625 819.363281 C 1635.140625 859.742188 1635.542969 865.339844 1638.738281 870.335938 C 1641.734375 874.535156 1642.933594 875.332031 1645.128906 873.535156 C 1651.523438 868.136719 1652.71875 857.742188 1651.320312 815.167969 C 1650.320312 788.980469 1650.519531 773.585938 1651.71875 773.585938 C 1654.714844 773.585938 1659.511719 781.984375 1664.902344 795.972656 C 1670.09375 809.769531 1680.078125 829.558594 1697.660156 860.941406 C 1715.632812 892.925781 1721.023438 897.121094 1729.613281 885.527344 C 1735.003906 878.128906 1737.800781 877.933594 1743.996094 884.527344 C 1750.1875 891.121094 1752.183594 890.925781 1756.976562 882.128906 C 1759.171875 877.933594 1763.367188 873.332031 1766.164062 871.734375 C 1776.550781 865.9375 1785.335938 872.136719 1802.316406 896.921875 C 1810.105469 908.714844 1813.105469 911.515625 1817.097656 911.515625 C 1825.285156 911.515625 1829.878906 907.917969 1829.878906 901.917969 C 1829.878906 895.320312 1823.488281 888.726562 1807.910156 879.332031 C 1801.917969 875.734375 1794.125 870.734375 1790.535156 868.136719 C 1776.550781 857.542969 1773.15625 833.554688 1785.9375 833.554688 C 1787.738281 833.554688 1790.929688 832.355469 1793.128906 830.757812 C 1796.722656 827.957031 1796.722656 827.554688 1789.53125 820.164062 C 1780.945312 811.367188 1779.945312 805.96875 1785.9375 800.574219 C 1793.328125 793.976562 1789.734375 787.78125 1772.359375 775.585938 C 1768.761719 773.1875 1766.164062 769.988281 1766.765625 768.589844 C 1767.964844 765.390625 1761.371094 759.394531 1750.988281 753.996094 L 1742.996094 749.796875 L 1750.988281 749.601562 C 1762.375 749.601562 1774.152344 746.003906 1779.746094 741.003906 C 1787.535156 733.804688 1796.125 713.816406 1823.289062 638.65625 C 1826.085938 630.863281 1828.878906 619.269531 1829.28125 612.671875 C 1830.277344 601.679688 1829.878906 599.878906 1825.085938 594.285156 C 1815.300781 582.488281 1796.722656 584.289062 1766.566406 599.480469 C 1724.421875 620.667969 1684.875 662.84375 1663.300781 709.621094 L 1656.511719 724.613281 L 1652.519531 715.621094 C 1647.925781 705.023438 1641.929688 699.027344 1637.539062 700.824219 C 1635.742188 701.425781 1631.945312 708.222656 1628.949219 716.019531 L 1623.558594 730.011719 L 1613.375 709.222656 C 1599.589844 681.4375 1584.609375 660.246094 1564.238281 639.660156 C 1525.6875 601.082031 1478.953125 578.492188 1458.578125 589.085938 Z M 1458.578125 589.085938 "/>
<path style=" stroke:none;fill-rule:nonzero;fill:rgb(0%,0%,0%);fill-opacity:1;" d="M 590.75 634.660156 C 574.570312 639.058594 561.789062 655.050781 554.800781 679.640625 C 551.007812 692.632812 533.828125 792.179688 535.023438 793.578125 C 535.425781 793.976562 541.417969 794.574219 548.210938 794.574219 C 558.589844 794.574219 561.988281 793.578125 568.78125 788.980469 C 585.15625 777.785156 597.144531 754.597656 598.941406 730.609375 C 600.339844 712.417969 597.742188 705.625 589.550781 705.625 C 585.15625 705.625 581.164062 708.019531 573.972656 715.019531 C 568.578125 720.417969 562.390625 727.214844 560.191406 730.609375 C 555.996094 736.40625 555.996094 736.207031 560.792969 708.621094 C 568.78125 663.046875 576.570312 645.453125 589.949219 642.65625 C 597.542969 641.058594 605.53125 636.460938 605.53125 633.660156 C 605.53125 631.0625 602.933594 631.261719 590.75 634.660156 Z M 584.359375 735.808594 C 584.15625 763.390625 573.375 783.582031 558.792969 783.582031 C 549.609375 783.582031 548.40625 780.585938 551.40625 766.589844 C 554.597656 752.195312 562.589844 736.804688 571.777344 727.214844 C 582.359375 716.21875 584.5625 717.617188 584.359375 735.808594 Z M 584.359375 735.808594 "/>
<path style=" stroke:none;fill-rule:nonzero;fill:rgb(0%,0%,0%);fill-opacity:1;" d="M 986.417969 634.460938 C 970.039062 638.859375 957.851562 654.050781 950.269531 679.640625 C 946.871094 690.628906 928.894531 791.980469 929.894531 793.175781 C 930.292969 793.378906 935.085938 794.175781 940.480469 794.777344 C 952.261719 796.375 962.25 791.777344 973.230469 780.183594 C 995.804688 756.59375 1002.992188 705.625 983.824219 705.625 C 978.230469 705.625 963.25 718.417969 956.859375 729.011719 C 954.460938 732.808594 952.261719 735.609375 952.0625 735.207031 C 951.0625 734.410156 960.054688 684.433594 963.046875 673.640625 C 968.242188 654.648438 978.230469 641.65625 987.816406 641.65625 C 992.609375 641.65625 1001 636.460938 1001 633.464844 C 1001 631.0625 998.203125 631.261719 986.417969 634.460938 Z M 979.628906 737.40625 C 979.425781 750.796875 978.230469 756 973.433594 766.390625 C 966.84375 780.382812 962.25 784.183594 952.460938 783.183594 C 946.074219 782.582031 946.074219 782.582031 946.269531 771.992188 C 946.667969 763.992188 948.667969 757.398438 953.859375 746.601562 C 961.054688 732.210938 973.230469 718.621094 977.628906 720.214844 C 979.226562 720.8125 979.828125 726.609375 979.628906 737.40625 Z M 979.628906 737.40625 "/>
<path style=" stroke:none;fill-rule:nonzero;fill:rgb(0%,0%,0%);fill-opacity:1;" d="M 1300.195312 634.460938 C 1282.417969 639.261719 1271.230469 651.851562 1262.640625 676.839844 C 1260.25 683.234375 1254.453125 712.019531 1249.464844 740.40625 C 1244.46875 768.992188 1240.074219 793.175781 1239.476562 793.976562 C 1238.878906 794.777344 1239.875 795.574219 1241.671875 795.574219 C 1247.066406 795.574219 1254.253906 786.582031 1255.652344 778.386719 C 1260.445312 748.398438 1276.824219 719.617188 1289.011719 719.617188 C 1293.800781 719.617188 1293.800781 727.8125 1288.609375 752.796875 C 1284.417969 773.1875 1283.21875 789.582031 1285.414062 793.378906 C 1289.808594 800.371094 1305.984375 788.980469 1311.382812 775.386719 C 1313.175781 770.789062 1314.175781 766.589844 1313.375 765.789062 C 1312.578125 765.191406 1311.777344 765.390625 1311.382812 766.589844 C 1308.980469 772.988281 1302.1875 781.582031 1299.59375 781.582031 C 1295.800781 781.582031 1295.601562 782.78125 1301.59375 750.203125 C 1304.390625 735.207031 1306.585938 719.015625 1306.183594 714.621094 C 1305.585938 707.425781 1304.984375 706.621094 1299.996094 706.023438 C 1292.203125 705.023438 1280.621094 713.019531 1271.230469 725.613281 C 1267.238281 731.007812 1263.644531 735.207031 1263.445312 735.007812 C 1262.046875 733.609375 1273.03125 676.839844 1276.425781 667.441406 C 1281.21875 655.050781 1290.605469 644.257812 1298.398438 642.457031 C 1308.585938 640.257812 1309.582031 639.660156 1312.175781 635.660156 C 1315.175781 630.863281 1313.976562 630.664062 1300.195312 634.460938 Z M 1300.195312 634.460938 "/>
<path style=" stroke:none;fill-rule:nonzero;fill:rgb(0%,0%,0%);fill-opacity:1;" d="M 1372.898438 635.660156 C 1371.097656 638.65625 1370.5 665.445312 1370.5 750 C 1370.699219 868.335938 1370.5 867.539062 1380.484375 867.539062 C 1390.472656 867.539062 1390.273438 868.335938 1390.273438 749.601562 C 1390.273438 660.445312 1389.875 638.058594 1387.675781 635.0625 C 1384.078125 630.464844 1376.09375 630.664062 1372.898438 635.660156 Z M 1372.898438 635.660156 "/>
<path style=" stroke:none;fill-rule:nonzero;fill:rgb(0%,0%,0%);fill-opacity:1;" d="M 218.054688 663.445312 C 203.070312 666.648438 190.089844 677.839844 190.089844 688.234375 C 190.089844 690.832031 191.886719 689.832031 197.679688 684.035156 C 206.671875 674.441406 217.855469 670.640625 230.839844 672.445312 L 240.023438 673.84375 L 233.234375 682.035156 C 224.84375 691.628906 219.652344 702.425781 206.867188 736.40625 C 196.28125 765.191406 188.894531 776.386719 176.507812 783.183594 C 163.925781 790.175781 165.726562 792.574219 182.902344 792.574219 C 194.683594 792.574219 198.480469 791.777344 201.875 788.777344 C 207.867188 783.382812 207.070312 782.183594 198.679688 783.183594 L 191.089844 784.183594 L 198.679688 775.785156 C 202.875 771.1875 208.066406 763.390625 210.464844 758.59375 C 214.855469 749.601562 214.855469 749.601562 225.246094 749.601562 C 231.035156 749.601562 237.023438 749.203125 238.625 748.398438 C 241.023438 747.601562 241.621094 751 242.421875 767.390625 C 243.421875 789.378906 246.414062 795.574219 255.402344 795.574219 C 260.597656 795.574219 275.976562 782.582031 275.976562 778.183594 C 275.976562 775.785156 274.976562 775.988281 270.183594 778.785156 C 257.996094 785.980469 256.003906 780.585938 256.003906 737.804688 C 256.003906 707.023438 258.199219 687.035156 262.59375 674.039062 L 265.386719 666.242188 L 247.617188 664.84375 C 238.027344 664.046875 228.839844 663.246094 227.441406 662.84375 C 226.242188 662.445312 221.847656 662.84375 218.054688 663.445312 Z M 246.8125 689.832031 C 245.414062 696.628906 243.617188 710.222656 242.820312 719.816406 L 241.421875 737.609375 L 229.835938 737.609375 C 223.246094 737.609375 218.054688 737.207031 218.054688 736.609375 C 218.054688 736.207031 221.648438 726.414062 226.042969 714.816406 C 233.632812 695.429688 244.015625 677.636719 247.617188 677.636719 C 248.613281 677.636719 248.210938 683.234375 246.8125 689.832031 Z M 246.8125 689.832031 "/>
<path style=" stroke:none;fill-rule:nonzero;fill:rgb(0%,0%,0%);fill-opacity:1;" d="M 789.082031 663.648438 C 777.101562 665.644531 765.117188 672.039062 758.523438 679.640625 C 749.738281 690.230469 752.332031 696.230469 761.519531 686.433594 C 777.296875 669.242188 815.25 668.644531 827.03125 685.4375 C 838.019531 700.824219 837.816406 737.207031 826.632812 758.59375 C 822.636719 766.390625 811.652344 776.785156 804.664062 779.382812 C 801.464844 780.585938 793.277344 781.582031 786.285156 781.582031 L 773.703125 781.582031 L 775.5 775.988281 C 776.699219 772.988281 780.496094 752.195312 784.289062 729.609375 C 787.886719 707.023438 791.480469 687.035156 792.277344 685.035156 C 795.074219 678.4375 786.089844 681.835938 779.894531 689.832031 C 778.5 691.433594 774.304688 711.019531 770.507812 733.210938 C 763.117188 775.386719 762.320312 778.183594 755.527344 784.378906 C 747.738281 791.378906 750.136719 792.574219 774.902344 792.976562 C 802.863281 793.578125 812.851562 790.980469 826.230469 779.1875 C 850 758.195312 858.589844 711.820312 843.609375 685.035156 C 839.015625 676.640625 835.617188 673.640625 827.03125 669.242188 C 814.847656 663.246094 802.464844 661.445312 789.082031 663.648438 Z M 789.082031 663.648438 "/>
<path style=" stroke:none;fill-rule:nonzero;fill:rgb(0%,0%,0%);fill-opacity:1;" d="M 1210.511719 685.4375 C 1207.320312 688.832031 1204.722656 693.425781 1204.722656 696.230469 C 1204.722656 704.824219 1202.722656 707.621094 1196.335938 707.621094 C 1189.742188 707.621094 1182.75 710.820312 1182.75 713.617188 C 1182.75 714.816406 1186.746094 715.621094 1191.742188 715.621094 C 1202.527344 715.621094 1202.125 713.816406 1196.730469 746.601562 C 1190.542969 784.78125 1191.742188 795.574219 1202.125 795.574219 C 1208.117188 795.574219 1222.699219 781.984375 1222.699219 776.585938 C 1222.699219 773.585938 1221.898438 773.988281 1217.703125 778.386719 C 1212.3125 784.183594 1207.121094 785.183594 1205.519531 780.585938 C 1204.921875 778.984375 1206.320312 765.789062 1208.519531 751.199219 C 1214.707031 712.820312 1213.710938 715.621094 1221.5 715.621094 C 1225.496094 715.621094 1229.492188 714.019531 1231.683594 711.621094 C 1235.28125 707.621094 1235.082031 707.621094 1225.695312 707.621094 L 1216.105469 707.621094 L 1217.308594 698.027344 C 1217.90625 692.832031 1219.101562 686.632812 1219.703125 684.035156 C 1221.699219 677.839844 1217.703125 678.4375 1210.511719 685.4375 Z M 1210.511719 685.4375 "/>
<path style=" stroke:none;fill-rule:nonzero;fill:rgb(0%,0%,0%);fill-opacity:1;" d="M 301.539062 709.621094 C 295.152344 714.621094 287.957031 725.816406 287.957031 730.808594 C 287.957031 733.410156 289.355469 732.40625 292.953125 727.011719 C 299.144531 718.015625 304.734375 717.019531 303.136719 725.011719 C 302.542969 728.210938 298.742188 751.199219 294.949219 776.585938 C 285.363281 838.75 280.765625 853.144531 268.785156 857.542969 C 255.199219 862.742188 243.820312 857.742188 238.828125 844.148438 C 234.429688 831.953125 234.832031 832.355469 230.035156 836.554688 C 224.644531 841.550781 225.042969 849.945312 231.035156 857.34375 C 241.21875 869.335938 261.792969 870.734375 276.773438 860.140625 C 287.757812 852.34375 298.347656 831.757812 301.941406 810.964844 C 304.335938 796.777344 304.9375 795.574219 309.332031 795.574219 C 321.113281 795.574219 339.292969 780.585938 347.875 763.59375 C 357.46875 745 360.460938 716.417969 353.671875 708.425781 C 349.078125 702.824219 341.6875 705.222656 331.097656 716.019531 C 325.308594 721.816406 319.320312 728.8125 317.515625 731.613281 C 314.320312 736.40625 314.125 736.207031 314.523438 721.613281 C 314.921875 707.820312 314.523438 706.621094 310.730469 706.023438 C 308.53125 705.625 304.335938 707.222656 301.539062 709.621094 Z M 343.085938 724.8125 C 346.28125 737.609375 337.691406 769.988281 328.703125 778.984375 C 324.109375 783.582031 313.523438 785.183594 308.730469 781.984375 C 305.339844 779.785156 310.730469 757.59375 318.117188 743.601562 C 324.109375 732.210938 335.691406 719.617188 339.886719 719.617188 C 340.886719 719.617188 342.484375 722.015625 343.085938 724.8125 Z M 343.085938 724.8125 "/>
<path style=" stroke:none;fill-rule:nonzero;fill:rgb(0%,0%,0%);fill-opacity:1;" d="M 384.230469 710.621094 C 378.035156 715.816406 371.046875 728.210938 372.246094 732.007812 C 372.644531 733.210938 375.042969 731.007812 377.636719 727.011719 C 380.035156 723.015625 383.429688 719.617188 385.027344 719.617188 C 388.421875 719.617188 388.625 717.019531 383.03125 753 C 377.238281 788.980469 377.839844 794.777344 387.824219 794.175781 C 394.8125 793.976562 405.597656 784.980469 415.988281 770.789062 L 421.777344 762.992188 L 420.582031 778.183594 C 419.382812 791.777344 419.578125 793.578125 422.777344 794.777344 C 430.566406 797.777344 445.546875 784.183594 448.742188 770.988281 C 450.738281 763.195312 447.144531 764.191406 443.148438 772.589844 C 439.953125 779.1875 434.960938 783.382812 432.765625 781.183594 C 432.164062 780.785156 434.960938 763.792969 438.757812 743.601562 C 442.550781 723.414062 445.144531 706.421875 444.746094 706.023438 C 442.953125 704.222656 435.5625 708.222656 433.5625 712.019531 C 432.363281 714.417969 430.167969 721.816406 428.570312 728.8125 C 425.375 744.601562 417.183594 762.195312 408.394531 771.589844 C 401.605469 779.1875 394.8125 782.582031 392.816406 779.582031 C 392.21875 778.582031 394.015625 763.195312 396.8125 745.402344 C 399.609375 727.8125 401.402344 711.417969 400.804688 709.421875 C 399.007812 704.027344 391.421875 704.621094 384.230469 710.621094 Z M 384.230469 710.621094 "/>
<path style=" stroke:none;fill-rule:nonzero;fill:rgb(0%,0%,0%);fill-opacity:1;" d="M 472.109375 714.621094 C 464.320312 723.414062 460.328125 731.613281 463.722656 731.613281 C 464.71875 731.613281 467.316406 728.8125 469.714844 725.613281 C 474.109375 719.414062 479.703125 717.617188 479.703125 722.414062 C 479.703125 727.613281 469.714844 784.378906 467.71875 789.980469 C 466.320312 794.375 466.515625 795.574219 468.714844 795.574219 C 473.507812 795.574219 483.695312 783.582031 483.695312 777.984375 C 483.695312 761.796875 497.078125 730.808594 506.664062 724.414062 C 513.054688 720.214844 518.847656 721.613281 518.246094 727.214844 C 517.847656 729.609375 518.648438 731.613281 519.644531 731.613281 C 523.242188 731.613281 529.832031 718.816406 529.234375 712.621094 C 528.636719 707.425781 527.636719 706.621094 522.242188 706.023438 C 514.851562 705.222656 504.066406 713.816406 495.679688 727.214844 L 490.488281 735.808594 L 490.488281 721.214844 C 490.683594 707.023438 490.488281 706.621094 485.492188 706.023438 C 481.296875 705.625 478.503906 707.425781 472.109375 714.621094 Z M 472.109375 714.621094 "/>
<path style=" stroke:none;fill-rule:nonzero;fill:rgb(0%,0%,0%);fill-opacity:1;" d="M 648.074219 709.824219 C 629.5 719.015625 613.320312 746.003906 611.921875 769.988281 C 610.921875 787.78125 612.320312 793.175781 618.515625 794.777344 C 625.507812 796.574219 635.691406 789.378906 646.277344 775.1875 L 654.867188 763.992188 L 654.664062 779.1875 C 654.460938 793.378906 654.867188 794.574219 658.65625 795.175781 C 661.054688 795.574219 665.847656 793.378906 669.445312 790.175781 C 676.238281 784.582031 684.824219 768.191406 682.226562 765.992188 C 681.628906 765.191406 680.628906 765.390625 680.230469 766.589844 C 678.230469 771.992188 671.238281 781.582031 669.445312 781.582031 C 665.054688 781.582031 665.449219 775.1875 672.042969 742.40625 C 675.835938 723.8125 678.433594 708.019531 678.035156 707.023438 C 676.238281 703.824219 656.261719 705.625 648.074219 709.824219 Z M 661.253906 717.417969 C 665.25 720.019531 662.257812 733.011719 653.46875 751 C 635.886719 786.980469 619.3125 789.980469 626.300781 755.796875 C 631.296875 732.007812 642.082031 715.621094 652.867188 715.621094 C 655.859375 715.621094 659.65625 716.417969 661.253906 717.417969 Z M 661.253906 717.417969 "/>
<path style=" stroke:none;fill-rule:nonzero;fill:rgb(0%,0%,0%);fill-opacity:1;" d="M 891.742188 711.417969 C 870.371094 726.8125 856.390625 769.589844 866.980469 786.980469 C 874.167969 798.773438 888.351562 798.175781 902.128906 785.378906 C 910.519531 777.585938 916.910156 766.589844 914.515625 764.191406 C 913.714844 763.59375 909.722656 766.789062 905.722656 771.386719 C 896.339844 781.582031 887.550781 783.980469 881.359375 777.785156 C 878.960938 775.386719 877.167969 771.1875 877.167969 767.992188 C 877.363281 763.390625 879.359375 761.394531 889.75 755.398438 C 904.925781 746.398438 915.113281 733.210938 916.710938 720.613281 C 917.3125 715.019531 916.710938 710.621094 915.113281 708.621094 C 911.121094 703.824219 900.535156 705.023438 891.742188 711.417969 Z M 891.742188 711.417969 "/>
<path style=" stroke:none;fill-rule:nonzero;fill:rgb(0%,0%,0%);fill-opacity:1;" d="M 1019.175781 715.019531 C 1011.382812 723.8125 1007.1875 732.40625 1009.585938 734.808594 C 1010.183594 735.40625 1011.984375 733.410156 1013.777344 730.210938 C 1016.972656 723.613281 1022.566406 718.417969 1024.167969 720.214844 C 1025.5625 721.417969 1015.574219 781.785156 1012.777344 788.980469 C 1010.386719 795.574219 1011.785156 796.972656 1018.171875 793.578125 C 1024.769531 789.980469 1026.363281 786.777344 1029.957031 769.789062 C 1034.953125 745.402344 1050.929688 719.617188 1060.714844 719.617188 C 1066.109375 719.617188 1066.109375 724.613281 1060.917969 753 C 1058.722656 764.792969 1056.519531 776.984375 1055.925781 780.183594 C 1054.527344 787.980469 1057.917969 795.574219 1062.914062 795.574219 C 1071.898438 795.574219 1091.074219 770.789062 1085.882812 765.992188 C 1085.085938 765.191406 1084.085938 765.390625 1083.6875 766.589844 C 1081.289062 772.988281 1074.5 781.582031 1071.898438 781.582031 C 1068.105469 781.582031 1068.105469 781.582031 1074.101562 750.203125 C 1076.898438 735.40625 1078.890625 719.617188 1078.492188 715.019531 C 1077.890625 707.425781 1077.292969 706.621094 1072.300781 706.023438 C 1064.507812 705.023438 1052.929688 713.019531 1043.539062 725.613281 C 1039.546875 731.007812 1035.953125 735.207031 1035.75 735.007812 C 1035.550781 734.808594 1035.953125 730.011719 1036.75 724.613281 C 1038.546875 709.824219 1037.546875 705.625 1031.957031 705.625 C 1028.960938 705.625 1024.566406 708.824219 1019.175781 715.019531 Z M 1019.175781 715.019531 "/>
<path style=" stroke:none;fill-rule:nonzero;fill:rgb(0%,0%,0%);fill-opacity:1;" d="M 1137.214844 709.222656 C 1126.628906 714.816406 1114.84375 727.613281 1108.652344 739.804688 C 1098.664062 759.792969 1096.269531 787.175781 1103.859375 793.578125 C 1110.449219 799.175781 1126.628906 788.378906 1139.007812 769.988281 C 1144.207031 762.394531 1145 761.59375 1144.003906 766.195312 C 1140.808594 780.183594 1140.609375 788.582031 1143.40625 792.574219 C 1146.398438 796.375 1146.800781 796.375 1153.390625 793.175781 C 1160.984375 789.582031 1171.566406 774.183594 1170.371094 768.386719 C 1169.96875 765.992188 1168.371094 767.191406 1164.777344 772.785156 C 1161.980469 776.785156 1158.582031 780.585938 1157.386719 781.183594 C 1153.390625 782.382812 1154.191406 773.1875 1160.78125 740.605469 C 1164.175781 724.414062 1166.773438 709.824219 1166.773438 708.222656 C 1166.773438 704.222656 1145.402344 705.023438 1137.214844 709.222656 Z M 1152.195312 718.214844 C 1153.789062 720.019531 1148 738.808594 1142.207031 751.199219 C 1134.21875 767.789062 1123.628906 779.980469 1118.039062 779.1875 C 1114.242188 778.582031 1113.84375 777.386719 1114.046875 765.589844 C 1114.445312 749.203125 1121.035156 731.007812 1130.222656 721.816406 C 1136.015625 716.019531 1137.8125 715.21875 1144.207031 716.21875 C 1148 717.019531 1151.59375 717.816406 1152.195312 718.214844 Z M 1152.195312 718.214844 "/>
<path style=" stroke:none;fill-rule:nonzero;fill:rgb(0%,0%,0%);fill-opacity:1;" d="M 391.820312 998.867188 C 346.679688 1087.820312 294.347656 1142.992188 238.625 1160.378906 C 202.675781 1171.378906 192.289062 1178.769531 180.105469 1201.558594 C 175.511719 1210.355469 173.515625 1216.75 173.3125 1224.148438 C 173.117188 1233.941406 173.3125 1234.339844 178.507812 1234.945312 C 181.902344 1235.339844 191.691406 1232.140625 203.472656 1226.746094 C 239.425781 1210.15625 251.609375 1210.15625 301.941406 1225.546875 C 338.691406 1236.742188 358.867188 1237.941406 382.230469 1230.742188 C 410.394531 1221.949219 439.753906 1201.359375 454.933594 1179.972656 C 465.917969 1164.777344 469.117188 1156.378906 465.71875 1152.386719 C 462.125 1148.1875 457.53125 1148.585938 435.960938 1155.585938 C 412.191406 1163.582031 385.027344 1164.777344 369.449219 1158.78125 C 364.054688 1156.785156 359.859375 1154.382812 359.859375 1153.386719 C 359.859375 1152.585938 365.054688 1147.988281 371.449219 1143.191406 C 399.808594 1121.800781 432.960938 1082.023438 460.328125 1036.847656 C 472.3125 1017.058594 495.679688 973.277344 495.679688 970.480469 C 495.679688 969.882812 475.707031 969.484375 451.136719 969.484375 L 406.800781 969.484375 Z M 391.820312 998.867188 "/>
<path style=" stroke:none;fill-rule:nonzero;fill:rgb(0%,0%,0%);fill-opacity:1;" d="M 732.160156 1004.863281 C 736.554688 1126.800781 742.945312 1173.175781 759.324219 1206.757812 C 773.703125 1235.941406 794.277344 1249.335938 824.835938 1249.335938 C 862.785156 1249.335938 903.527344 1228.742188 942.277344 1189.964844 C 969.441406 1162.980469 994.605469 1122.203125 992.609375 1108.609375 C 991.40625 1100.613281 981.621094 1102.214844 963.046875 1113.605469 C 922.703125 1138.195312 912.117188 1144.191406 903.527344 1146.589844 C 875.566406 1155.183594 858.589844 1143.589844 850.203125 1110.40625 C 846.40625 1094.816406 841.613281 1047.242188 840.214844 1008.664062 C 839.417969 992.070312 838.617188 976.480469 838.019531 973.882812 L 837.21875 969.484375 L 730.960938 969.484375 Z M 732.160156 1004.863281 "/>
<path style=" stroke:none;fill-rule:nonzero;fill:rgb(0%,0%,0%);fill-opacity:1;" d="M 1185.75 973.882812 C 1185.148438 976.480469 1181.953125 995.070312 1178.757812 1015.460938 C 1170.371094 1065.832031 1165.972656 1083.425781 1155.789062 1104.410156 C 1146.203125 1124.398438 1132.019531 1142.191406 1114.046875 1156.785156 C 1107.453125 1161.980469 1097.867188 1170.175781 1092.671875 1174.972656 C 1078.296875 1188.164062 1062.714844 1221.148438 1065.90625 1231.34375 C 1067.707031 1237.339844 1075.097656 1236.34375 1101.863281 1226.945312 C 1124.632812 1218.953125 1127.226562 1218.546875 1152.792969 1217.75 C 1179.757812 1216.949219 1191.539062 1218.148438 1278.621094 1230.546875 C 1308.382812 1234.742188 1380.484375 1236.539062 1406.449219 1233.542969 C 1506.316406 1221.949219 1582.414062 1185.769531 1654.914062 1115.40625 C 1680.28125 1090.816406 1703.050781 1063.035156 1723.226562 1032.449219 C 1736.402344 1012.460938 1757.976562 974.082031 1757.976562 970.882812 C 1757.976562 970.082031 1732.210938 969.484375 1700.65625 969.484375 L 1643.132812 969.683594 L 1634.542969 985.074219 C 1612.769531 1024.65625 1571.226562 1071.628906 1537.074219 1096.015625 C 1475.957031 1139.191406 1413.4375 1154.382812 1316.972656 1149.585938 C 1279.824219 1147.585938 1241.871094 1143.191406 1239.277344 1140.589844 C 1238.675781 1140.191406 1240.472656 1136.59375 1243.269531 1132.996094 C 1250.261719 1123.800781 1259.84375 1102.8125 1263.644531 1088.417969 C 1265.242188 1081.824219 1270.234375 1054.835938 1274.628906 1028.453125 C 1279.023438 1002.0625 1283.21875 978.078125 1283.816406 974.878906 L 1285.011719 969.484375 L 1186.746094 969.484375 Z M 1185.75 973.882812 "/>
</g>
</svg>
